<?xml version="1.0" standalone="no"?>
<!DOCTYPE svg PUBLIC "-//W3C//DTD SVG 20010904//EN"
 "http://www.w3.org/TR/2001/REC-SVG-20010904/DTD/svg10.dtd">
<svg version="1.0" xmlns="http://www.w3.org/2000/svg"
 width="1024.000000pt" height="1024.000000pt" viewBox="0 0 1024.000000 1024.000000"
 preserveAspectRatio="xMidYMid meet">

<g transform="translate(0.000000,1024.000000) scale(0.100000,-0.100000)"
fill="#000000" stroke="none">
<path d="M0 5120 l0 -4290 5120 0 5120 0 0 4290 0 4290 -5120 0 -5120 0 0
-4290z m2908 2489 c586 -573 1202 -1170 1252 -1214 179 -154 411 -266 670
-321 120 -26 438 -26 563 -1 129 26 257 71 380 134 201 102 180 84 1017 908
168 165 402 396 521 513 l216 212 604 0 604 0 -490 -482 c-270 -265 -733 -723
-1030 -1018 -297 -295 -583 -572 -635 -615 -251 -207 -575 -373 -878 -449
-614 -155 -1289 -55 -1812 269 -162 101 -288 204 -480 390 -144 140 -999 978
-1875 1836 l-70 69 604 0 603 0 236 -231z m2557 -3018 c349 -53 658 -173 955
-372 154 -103 241 -179 610 -539 201 -196 577 -563 835 -815 259 -252 472
-462 473 -466 2 -5 -267 -9 -597 -9 l-601 0 -302 297 c-684 672 -796 777 -907
851 -372 249 -855 315 -1288 176 -118 -37 -328 -146 -423 -218 -47 -36 -323
-299 -615 -585 l-530 -520 -610 0 -610 -1 60 58 c231 225 1019 995 1305 1276
233 228 381 365 455 421 378 282 735 416 1250 469 92 9 416 -4 540 -23z"/>
</g>
</svg>
